<?xml version="1.0" standalone="no"?><!DOCTYPE svg PUBLIC "-//W3C//DTD SVG 1.1//EN" "http://www.w3.org/Graphics/SVG/1.1/DTD/svg11.dtd"><svg t="1602752532776" class="icon" viewBox="0 0 1024 1024" version="1.1" xmlns="http://www.w3.org/2000/svg" p-id="5826" xmlns:xlink="http://www.w3.org/1999/xlink" width="32" height="32"><defs><style type="text/css"></style></defs><path d="M0 0h1024v1024H0z" fill="#FFFFFF" opacity=".01" p-id="5827"></path><path d="M967.68 89.088a38.144 38.144 0 0 0-12.032-27.136 39.2192 39.2192 0 0 0-27.136-10.752h-0.768l-261.0176 4.9664a39.2192 39.2192 0 0 0-27.4944 11.8784 37.888 37.888 0 0 0-10.9568 27.4944c0.4096 20.992 17.92 37.888 39.2192 37.888h0.768l168.2944-3.2256-195.2256 199.5776A369.5104 369.5104 0 0 0 409.6 253.7472C208.128 257.536 47.4112 421.9904 51.2512 620.2368 55.1424 816.0768 218.368 972.8 416.6144 972.8l7.168-0.0512c201.5232-3.8912 362.24-168.2944 358.4-366.5408a356.4032 356.4032 0 0 0-84.4288-222.72l193.3312-197.7344 3.2256 161.536c0.4096 20.992 17.92 37.8368 39.2704 37.8368h0.768a39.2192 39.2192 0 0 0 27.4944-11.8784 37.888 37.888 0 0 0 10.9568-27.4944l-5.12-256.7168z m-344.2176 719.7696a287.1808 287.1808 0 0 1-201.1648 86.6304l-5.7344 0.0512a287.5904 287.5904 0 0 1-198.7072-78.8992 278.4256 278.4256 0 0 1-88.064-197.9392c-3.1232-155.648 123.136-284.7232 281.344-287.744l5.7344-0.0512c74.3424 0 144.7424 27.8528 198.7072 78.9504a278.3232 278.3232 0 0 1 88.064 197.8368 278.016 278.016 0 0 1-80.1792 201.1648z" fill="#4597E0" p-id="5828"></path></svg>