<?xml version="1.0" standalone="no"?><!DOCTYPE svg PUBLIC "-//W3C//DTD SVG 1.1//EN" "http://www.w3.org/Graphics/SVG/1.1/DTD/svg11.dtd"><svg t="1608700030315" class="icon" viewBox="0 0 1024 1024" version="1.1" xmlns="http://www.w3.org/2000/svg" p-id="4029" xmlns:xlink="http://www.w3.org/1999/xlink" width="280" height="280"><defs><style type="text/css"></style></defs><path d="M512 512m-512 0a512 512 0 1 0 1024 0 512 512 0 1 0-1024 0Z" fill="#FFFFFF" p-id="4030"></path><path d="M892.288 754.090667a447.658667 447.658667 0 0 1-377.045333 205.909333 447.573333 447.573333 0 0 1-374.613334-202.24c18.090667-64.938667 67.114667-133.504 149.632-195.413333 40.533333-30.336 90.752-51.584 152.192-61.056 0.426667 0 0.853333 0.128 1.152 0.384l72.362667 69.76c0.426667 0.512 1.28 0.512 1.792 0l72.832-70.144c61.568 9.472 111.957333 30.592 152.832 60.928 81.493333 60.714667 130.517333 127.957333 148.864 191.872zM320.981333 261.290667a192 192 0 0 1 384-1.024c0.512 104.362667-88.661333 193.536-192.981333 192.981333a192 192 0 0 1-191.018667-192z m116.864 363.008l79.018667 191.146666 78.976-191.104a1.536 1.536 0 0 0 0.256-1.28l-78.08-46.890666c-0.298667-1.152-1.962667-1.152-2.432 0l-78.08 46.848c-0.042667 0.512 0 0.938667 0.341333 1.28z" fill="#3d425e" p-id="4031" data-spm-anchor-id="a313x.7781069.0.i15" class="selected"></path></svg>