<svg xmlns="http://www.w3.org/2000/svg" viewBox="0 0 32 32" width="24" height="24" style="fill: rgba(223, 15, 15, 1);"><path d="M25.806 5.647c-3.842-3.895-8.031-5.965-9.356-4.622-0.704 0.714-0.449 2.252 0.514 4.119l-9.498 7.319c-2.604-1.748-4.658-2.471-5.409-1.709-1.215 1.231 1.398 5.911 5.924 10.821-2.050 2.742-7.364 10.098-7.364 10.098l9.942-7.482c4.849 4.599 9.474 7.255 10.691 6.022 0.806-0.818-0.080-3.159-2.086-6.076l7.14-9.525c1.84 0.977 3.358 1.234 4.063 0.521 1.326-1.344-0.716-5.591-4.558-9.487z"></path></svg>